/* XPM */
static char * close_prelight_xpm[] = {
"20 24 68 1",
" 	c None",
".	c #455D7C",
"+	c #B2CCED",
"@	c #99BAE3",
"#	c #97B8E2",
"$	c #96B7E1",
"%	c #B7D0EF",
"&	c #94B6E0",
"*	c #5A7FAE",
"=	c #93B5E0",
"-	c #94B5E0",
";	c #92B4DF",
">	c #93B5DF",
",	c #4F76A8",
"'	c #537AAB",
")	c #85A7D3",
"!	c #95B6E0",
"~	c #96B6E1",
"{	c #80A2CF",
"]	c #7293BC",
"^	c #B1C9E9",
"/	c #90B3DE",
"(	c #91B4DF",
"_	c #4E76A8",
":	c #C3D3E9",
"<	c #CEDBED",
"[	c #5A80AF",
"}	c #7EA1CE",
"|	c #DCE7F4",
"1	c #7798C2",
"2	c #8FB2DE",
"3	c #91B3DF",
"4	c #557BAC",
"5	c #E1EAF6",
"6	c #5A80AE",
"7	c #5C81B2",
"8	c #8DB1DD",
"9	c #8EB2DD",
"0	c #7C9FCD",
"a	c #CFDCED",
"b	c #8CB0DC",
"c	c #8DB0DC",
"d	c #7B9ECC",
"e	c #7DA0CE",
"f	c #86ABD9",
"g	c #7399C8",
"h	c #84AAD8",
"i	c #83A9D7",
"j	c #7197C7",
"k	c #82A8D6",
"l	c #81A7D5",
"m	c #5077A9",
"n	c #C0D0E8",
"o	c #6F95C5",
"p	c #81A7D6",
"q	c #80A6D5",
"r	c #577EB0",
"s	c #567DAE",
"t	c #6E95C6",
"u	c #739ACA",
"v	c #6087B7",
"w	c #7698C3",
"x	c #9EBBDF",
"y	c #7EA5D4",
"z	c #7DA4D3",
"A	c #7CA3D3",
"B	c #7BA2D2",
"C	c #7AA1D1",
"....................",
"++++++++++++++++++++",
"@@@@@@@@@@@@@@@@@@@@",
"###..............###",
"$$.%%%%%%%%%%%%%%.$$",
"&.%&&&&&&&&&&&&&&*.&",
"=.%====-=========*.=",
";.%;;>,')!~{']^;;*.;",
"/.%/(_:<[}}[<|1//*./",
"2.%234<5<*6<5<722*.2",
"8.%890[<5aa5<[088*.8",
"b.%bbcd*a55a6ebbb*.b",
"f.%fffg6a55a*gfff*.f",
"h.%hij[<5aa5<[jhh*.h",
"i.%ik4<5<6*<5<4ii*.i",
"k.%klmn<[oo[<|]kk*.k",
"p.%ppqrstqquvwxpp*.p",
"q.%qqqqqqqqqqqqqq*.q",
"y.%yyyyyyyyyyyyyy*.y",
"zz.**************.zz",
"AAA..............AAA",
"BBBBBBBBBBBBBBBBBBBB",
"CCCCCCCCCCCCCCCCCCCC",
"____________________"};
