/* XPM */
static char * close_active_xpm[] = {
"20 24 67 1",
" 	c None",
".	c #455D7C",
"+	c #B2CCED",
"@	c #99BAE3",
"#	c #97B8E2",
"$	c #96B7E1",
"%	c #94B6E0",
"&	c #93B5E0",
"*	c #94B5E0",
"=	c #92B4DF",
"-	c #93B5DF",
";	c #4F76A8",
">	c #537AAB",
",	c #85A7D3",
"'	c #95B6E0",
")	c #96B6E1",
"!	c #80A2CF",
"~	c #7293BC",
"{	c #B1C9E9",
"]	c #90B3DE",
"^	c #91B4DF",
"/	c #4E76A8",
"(	c #C3D3E9",
"_	c #CEDBED",
":	c #5A80AF",
"<	c #7EA1CE",
"[	c #DCE7F4",
"}	c #7798C2",
"|	c #8FB2DE",
"1	c #91B3DF",
"2	c #557BAC",
"3	c #E1EAF6",
"4	c #5A7FAE",
"5	c #5A80AE",
"6	c #5C81B2",
"7	c #8DB1DD",
"8	c #8EB2DD",
"9	c #7C9FCD",
"0	c #CFDCED",
"a	c #8CB0DC",
"b	c #8DB0DC",
"c	c #7B9ECC",
"d	c #7DA0CE",
"e	c #86ABD9",
"f	c #7399C8",
"g	c #84AAD8",
"h	c #83A9D7",
"i	c #7197C7",
"j	c #82A8D6",
"k	c #81A7D5",
"l	c #5077A9",
"m	c #C0D0E8",
"n	c #6F95C5",
"o	c #81A7D6",
"p	c #80A6D5",
"q	c #577EB0",
"r	c #567DAE",
"s	c #6E95C6",
"t	c #739ACA",
"u	c #6087B7",
"v	c #7698C3",
"w	c #9EBBDF",
"x	c #7EA5D4",
"y	c #7DA4D3",
"z	c #7CA3D3",
"A	c #7BA2D2",
"B	c #7AA1D1",
"....................",
"++++++++++++++++++++",
"@@@@@@@@@@@@@@@@@@@@",
"####################",
"$$$$$$$$$$$$$$$$$$$$",
"%%%%%%%%%%%%%%%%%%%%",
"&&&&&&&*&&&&&&&&&&&&",
"=====-;>,')!>~{=====",
"]]]]^/(_:<<:_[}]]]]]",
"||||12_3_45_3_6|||||",
"777789:_3003_:977777",
"aaaaabc403305daaaaaa",
"eeeeeef503304feeeeee",
"gggghi:_3003_:iggggg",
"hhhhj2_3_54_3_2hhhhh",
"jjjjklm_:nn:_[~jjjjj",
"ooooopqrspptuvwooooo",
"pppppppppppppppppppp",
"xxxxxxxxxxxxxxxxxxxx",
"yyyyyyyyyyyyyyyyyyyy",
"zzzzzzzzzzzzzzzzzzzz",
"AAAAAAAAAAAAAAAAAAAA",
"BBBBBBBBBBBBBBBBBBBB",
"////////////////////"};
