/* XPM */
static char * close_inactive_xpm[] = {
"20 24 61 1",
" 	c None",
".	c #85827E",
"+	c #F9F8F8",
"@	c #EBEAE9",
"#	c #EAE9E8",
"$	c #E9E8E7",
"%	c #E7E6E5",
"&	c #E8E7E6",
"*	c #E6E5E4",
"=	c #E5E4E3",
"-	c #E7E7E6",
";	c #F2F2F1",
">	c #EFEFEE",
",	c #DADADA",
"'	c #C2C1C1",
")	c #929292",
"!	c #7E7D7D",
"~	c #F2F2F2",
"{	c #F0EFEF",
"]	c #EEEDED",
"^	c #717070",
"/	c #D9D9D9",
"(	c #E4E3E2",
"_	c #EEEEED",
":	c #6B6A6A",
"<	c #F5F5F5",
"[	c #E3E2E1",
"}	c #E8E8E7",
"|	c #7D7C7C",
"1	c #7C7C7C",
"2	c #F0F0F0",
"3	c #E2E1E0",
"4	c #E5E4E4",
"5	c #F1F1F1",
"6	c #DEDCDA",
"7	c #E3E1E0",
"8	c #EDEDED",
"9	c #7C7B7B",
"0	c #DDDBD9",
"a	c #DFDDDC",
"b	c #EBEAEA",
"c	c #838181",
"d	c #E7E6E6",
"e	c #DFDDDB",
"f	c #DCDAD8",
"g	c #E5E3E3",
"h	c #E7E5E4",
"i	c #DBD9D7",
"j	c #E4E2E2",
"k	c #D1D0D0",
"l	c #DAD8D6",
"m	c #E0DEDD",
"n	c #D2D0D0",
"o	c #BDBBBB",
"p	c #D9D7D5",
"q	c #D8D6D4",
"r	c #D7D5D3",
"s	c #D6D4D2",
"t	c #D5D3D1",
"u	c #D4D2D0",
"v	c #9D9996",
"....................",
"++++++++++++++++++++",
"@@@@@@@@@@@@@@@@@@@@",
"####################",
"$$$$$$$$$$$$$$$$$$$$",
"%&&&&&&&&&&&&&&&&&&&",
"*=%%%%%%%%%%%-@%%%%%",
"******#;***&>,'*****",
"=====%)!~{]~!^/=====",
"(((((_!:!~~!:!<(((((",
"[[[[[[}!:|1:!2([[[[[",
"33333345|::153333333",
"666666789::986666666",
"00000ab1:c1:1de00000",
"fffff&1:1%g1:1hfffff",
"iiiiie)9gfij9^kiiiii",
"llllllfmllll6nolllll",
"pppppppppppppppppppp",
"qqqqqqqqqqqqqqqqqqqq",
"rrrrrrrrrrrrrrrrrrrr",
"ssssssssssssssssssss",
"tttttttttttttttttttt",
"uuuuuuuuuuuuuuuuuuuu",
"vvvvvvvvvvvvvvvvvvvv"};
