/* XPM */
static char * maximize_toggled_active_xpm[] = {
"20 24 26 1",
" 	c None",
".	c #455D7C",
"+	c #B2CCED",
"@	c #99BAE3",
"#	c #97B8E2",
"$	c #96B7E1",
"%	c #94B6E0",
"&	c #93B5E0",
"*	c #92B4DF",
"=	c #90B3DE",
"-	c #4E76A8",
";	c #8FB2DE",
">	c #E1EAF6",
",	c #8DB1DD",
"'	c #8CB0DC",
")	c #86ABD9",
"!	c #84AAD8",
"~	c #83A9D7",
"{	c #82A8D6",
"]	c #81A7D6",
"^	c #80A6D5",
"/	c #7EA5D4",
"(	c #7DA4D3",
"_	c #7CA3D3",
":	c #7BA2D2",
"<	c #7AA1D1",
"....................",
"++++++++++++++++++++",
"@@@@@@@@@@@@@@@@@@@@",
"####################",
"$$$$$$$$$$$$$$$$$$$$",
"%%%%%%%%%%%%%%%%%%%%",
"&&&&&&&&&&&&&&&&&&&&",
"********************",
"======--------======",
";;;;;;->>>>>>-;;;;;;",
",,,,,,->>>>>>-,,,,,,",
"''''''->---->-''''''",
"))))))->-))->-))))))",
"!!!!!!->---->-!!!!!!",
"~~~~~~->>>>>>-~~~~~~",
"{{{{{{--------{{{{{{",
"]]]]]]]]]]]]]]]]]]]]",
"^^^^^^^^^^^^^^^^^^^^",
"////////////////////",
"((((((((((((((((((((",
"____________________",
"::::::::::::::::::::",
"<<<<<<<<<<<<<<<<<<<<",
"--------------------"};
