/* XPM */
static char * top_right_active_xpm[] = {
"5 24 27 1",
" 	c None",
".	c #507BB1",
"+	c #ADC8EB",
"@	c #48668A",
"#	c #94B6E0",
"$	c #82A8D7",
"%	c #93B5E0",
"&	c #7BA2D3",
"*	c #455D7C",
"=	c #92B4DF",
"-	c #90B3DE",
";	c #8FB2DE",
">	c #8DB1DD",
",	c #8CB0DC",
"'	c #86ABD9",
")	c #84AAD8",
"!	c #83A9D7",
"~	c #82A8D6",
"{	c #81A7D6",
"]	c #80A6D5",
"^	c #7EA5D4",
"/	c #7DA4D3",
"(	c #7CA3D3",
"_	c #7BA2D2",
":	c #7AA1D1",
"<	c #4E76A8",
"[	c #6D6A68",
"...  ",
"+++@ ",
"###$@",
"%%%&*",
"%%%&*",
"===&*",
"%%%&*",
"===&*",
"---&*",
";;;&*",
">>>&*",
",,,&*",
"'''&*",
")))&*",
"!!!&*",
"~~~&*",
"{{{&*",
"]]]&*",
"^^^&*",
"///&*",
"(((&*",
"___&*",
":::&*",
"<<<<["};
